<mxfile host="app.diagrams.net" modified="2023-07-03T10:20:44.854Z" agent="Mozilla/5.0 (X11; Linux x86_64; rv:102.0) Gecko/20100101 Firefox/102.0" version="21.5.2" etag="2yxFIrTO-Cl_ncGTt_zu" type="github">
  <diagram name="Page-1" id="dE5VAYuhjWCP4EbAz8N7">
    <mxGraphModel>
      <root>
        <mxCell id="0" />
        <mxCell id="1" parent="0" />
      </root>
    </mxGraphModel>
  </diagram>
</mxfile>
